<svg version="1.0" xmlns="http://www.w3.org/2000/svg"
 width="761.000000pt" height="228.000000pt" viewBox="0 0 761.000000 228.000000"
 preserveAspectRatio="xMidYMid meet">

<g transform="translate(0.000000,228.000000) scale(0.100000,-0.100000)"
 stroke="none">
<path d="M750 1987 c-168 -93 -359 -199 -425 -236 l-120 -66 -3 -486 -2 -487
424 -241 c233 -132 429 -241 436 -241 7 0 57 26 112 57 92 52 99 58 82 70 -11
8 -191 113 -401 234 -210 121 -386 226 -392 233 -6 7 -11 141 -12 366 l-1 354
421 236 c231 129 420 237 421 240 0 3 -30 22 -68 42 -37 21 -89 50 -117 66
l-50 29 -305 -170z" fill="#2f256e"/>
<path d="M1058 1838 l-268 -151 0 -491 0 -491 272 -162 273 -162 65 36 c36 20
93 53 127 73 l61 35 -269 154 -269 154 2 356 3 356 258 150 c142 82 258 154
258 159 0 10 -218 136 -235 135 -6 0 -131 -68 -278 -151z" fill="#2f256e" />
<path d="M1603 1829 c-6 -6 -62 -41 -125 -78 l-113 -66 -3 -63 c-3 -58 -4 -62
-27 -62 -21 0 -25 -5 -25 -30 0 -25 4 -30 25 -30 l25 0 0 -310 0 -310 -25 0
c-21 0 -25 -5 -25 -30 0 -25 4 -30 25 -30 23 0 24 -4 27 -62 l3 -62 125 -73
c69 -39 129 -72 134 -72 4 -1 68 33 142 75 l134 76 0 59 c0 52 2 59 20 59 16
0 20 7 20 30 0 23 -4 30 -20 30 -20 0 -20 7 -20 310 0 303 0 310 20 310 16 0
20 7 20 30 0 23 -4 30 -20 30 -18 0 -20 7 -20 59 0 55 -2 61 -27 73 -64 32
-234 131 -239 139 -7 12 -18 11 -31 -2z m-233 -299 c0 -15 -7 -20 -25 -20 -18
0 -25 5 -25 20 0 15 7 20 25 20 18 0 25 -5 25 -20z m500 0 c0 -19 -7 -20 -245
-20 -238 0 -245 1 -245 20 0 19 7 20 245 20 238 0 245 -1 245 -20z m-220 -345
c0 -108 -1 -115 -20 -115 -19 0 -20 7 -20 115 0 108 1 115 20 115 19 0 20 -7
20 -115z m-280 -335 c0 -15 -7 -20 -25 -20 -18 0 -25 5 -25 20 0 15 7 20 25
20 18 0 25 -5 25 -20z m500 0 c0 -19 -7 -20 -245 -20 -238 0 -245 1 -245 20 0
19 7 20 245 20 238 0 245 -1 245 -20z" fill="#2f256e"/>
<path d="M2323 1677 c-10 -12 -53 -53 -95 -91 l-78 -69 0 -439 0 -438 79 0
c61 0 82 4 92 17 19 22 191 164 206 170 10 4 13 49 13 179 l0 174 -85 0 -85 0
0 -133 c0 -121 -2 -133 -20 -145 -20 -12 -20 -10 -20 266 0 272 3 302 32 302
4 0 8 -56 8 -125 l0 -125 85 0 85 0 0 240 0 240 -99 0 c-91 0 -101 -2 -118
-23z" fill="#2f256e"/>
<path d="M2590 1170 l0 -530 85 0 85 0 0 225 0 225 25 0 25 0 0 -225 0 -225
85 0 85 0 0 530 0 530 -85 0 -85 0 0 -220 0 -220 -25 0 -25 0 0 220 0 220 -85
0 -85 0 0 -530z" fill="#2f256e"/>
<path d="M3030 1170 l0 -530 80 0 80 0 0 530 0 530 -80 0 -80 0 0 -530z" fill="#2f256e"/>
<path d="M3356 1589 l-116 -112 0 -418 0 -419 90 0 90 0 0 378 c0 373 2 402
32 402 4 0 8 -175 8 -390 l0 -390 85 0 85 0 0 373 c0 350 1 375 18 390 10 10
22 17 25 17 4 0 7 -175 7 -390 l0 -390 85 0 85 0 0 530 0 530 -63 0 c-60 0
-65 -2 -102 -40 -21 -22 -43 -40 -47 -40 -4 0 -8 18 -8 40 l0 40 -79 0 -80 0
-115 -111z" fill="#2f256e"/>
<path d="M3987 1602 l-97 -97 0 -432 0 -433 92 0 91 0 57 53 c31 28 80 72 108
96 l52 45 0 163 0 163 -90 0 -90 0 0 -122 c0 -107 -3 -126 -20 -148 -20 -25
-20 -25 -20 256 0 268 1 282 20 299 20 18 20 17 20 -108 l0 -127 90 0 90 0 0
245 0 245 -102 0 -103 0 -98 -98z" fill="#de0000"/>
<path d="M4432 1596 l-102 -105 0 -425 0 -426 90 0 90 0 62 58 c34 31 81 75
105 98 l43 41 0 431 0 432 -93 0 -93 0 -102 -104z m98 -710 l-20 -20 0 278 c0
252 2 281 18 299 16 18 17 7 20 -259 2 -267 2 -279 -18 -298z" fill="#de0000"/>
<path d="M4878 1592 l-108 -107 0 -423 0 -422 85 0 85 0 0 374 0 374 25 16 25
16 0 -390 0 -390 85 0 85 0 2 381 3 382 23 15 22 14 0 -396 0 -396 85 0 85 0
0 530 0 530 -68 0 c-65 0 -70 -2 -102 -35 -19 -19 -38 -35 -42 -35 -4 0 -8 16
-8 35 l0 35 -87 0 -88 -1 -107 -107z" fill="#de0000"/>
<path d="M5567 1650 c-27 -27 -52 -50 -54 -50 -3 0 -24 -19 -49 -42 l-44 -43
0 -437 0 -438 85 0 85 0 0 89 c0 100 -15 79 143 204 l77 61 0 353 0 353 -96 0
-97 0 -50 -50z m58 -596 c-2 -12 -12 -24 -20 -28 -13 -5 -15 21 -15 196 0 180
2 202 18 214 16 12 17 1 20 -174 1 -103 0 -197 -3 -208z" fill="#de0000"/>
<path d="M5866 1691 c-3 -5 -6 -242 -7 -527 l-1 -519 217 -3 217 -2 74 62 c40
35 91 78 114 97 l41 34 -3 101 -3 101 -85 0 -85 0 -1 -84 c-1 -58 -6 -86 -15
-92 -33 -21 -36 -10 -29 130 l5 106 105 1 105 2 0 72 0 72 -105 1 -105 2 -3
74 c-2 59 0 77 15 93 18 20 18 19 23 -43 l5 -64 85 0 85 0 0 195 0 195 -84 2
c-55 1 -94 -3 -110 -12 -14 -7 -62 -50 -106 -94 l-80 -81 3 -345 c3 -387 7
-364 -73 -361 l-40 1 -5 445 -5 445 -72 2 c-40 2 -74 -1 -77 -6z" fill="#de0000"/>
<path d="M6655 1609 l-95 -91 0 -439 0 -439 90 0 90 0 46 45 c26 24 50 46 54
47 5 2 31 25 59 51 l51 48 0 164 0 165 -85 0 -85 0 0 -123 c0 -119 -1 -124
-25 -147 l-25 -23 0 279 1 279 24 18 25 18 0 -126 0 -125 85 0 85 0 0 165 0
165 50 0 50 0 0 -450 0 -450 90 0 90 0 0 450 0 450 50 0 50 0 0 80 0 80 -290
0 -289 0 -96 -91z" fill="#de0000"/>
<path d="M2848 523 c6 -2 12 -12 12 -20 0 -21 -38 -153 -50 -175 -9 -17 -3
-18 75 -18 47 0 85 4 85 9 0 5 3 17 6 26 6 14 1 13 -27 -4 -19 -12 -47 -21
-63 -21 -25 0 -27 3 -22 25 19 76 34 89 68 58 14 -13 18 -13 18 -2 0 8 3 25 7
39 6 24 6 24 -11 8 -10 -10 -26 -18 -37 -18 -16 0 -18 5 -13 28 13 52 24 64
52 57 15 -3 33 -13 40 -22 6 -9 12 -12 12 -6 0 6 3 18 6 27 5 14 -6 16 -82 15
-49 0 -83 -3 -76 -6z"/>
<path d="M3069 517 c14 -18 -31 -176 -56 -194 -15 -11 -13 -13 14 -13 26 0 30
3 26 20 -6 21 26 150 36 150 3 0 23 -37 43 -82 20 -46 40 -82 44 -81 5 1 19
42 32 90 13 48 31 96 39 106 15 16 14 17 -17 17 -27 0 -30 -2 -21 -14 9 -11 9
-26 0 -63 -6 -26 -15 -52 -19 -56 -4 -4 -21 24 -38 63 -30 65 -34 70 -63 70
-25 0 -29 -3 -20 -13z"/>
<path d="M3333 510 c-86 -52 -94 -166 -13 -200 50 -21 120 2 120 39 0 9 6 27
13 41 13 25 13 26 -22 25 -35 0 -36 -1 -37 -43 -2 -55 -15 -69 -48 -54 -72 33
-13 202 71 202 16 0 27 -9 35 -26 11 -23 13 -24 19 -7 16 39 11 43 -48 43 -40
0 -68 -6 -90 -20z"/>
<path d="M3537 519 c15 -15 -30 -179 -54 -196 -14 -11 -10 -13 30 -13 37 0 45
3 41 15 -9 22 35 178 54 193 13 10 8 12 -33 12 -36 0 -46 -3 -38 -11z"/>
<path d="M3659 516 c10 -12 8 -32 -10 -96 -12 -45 -28 -88 -36 -96 -13 -12
-11 -14 11 -14 18 0 24 4 20 14 -6 15 23 135 36 149 4 4 24 -30 46 -77 21 -47
41 -86 44 -86 4 0 16 39 29 88 12 48 29 97 37 110 14 21 13 22 -11 22 -16 0
-24 -4 -19 -11 7 -12 -15 -129 -25 -129 -3 0 -17 26 -30 58 -32 75 -38 82 -73
82 -25 0 -28 -2 -19 -14z"/>
<path d="M3896 515 c8 -19 -24 -152 -42 -182 l-14 -23 83 0 c80 0 84 1 95 25
14 30 8 31 -25 5 -14 -11 -39 -20 -56 -20 -29 0 -29 1 -23 42 4 22 9 45 12 50
8 12 31 10 47 -6 12 -13 16 -10 25 21 10 33 10 34 -7 19 -10 -9 -27 -16 -39
-16 -20 0 -20 2 -8 43 11 38 15 42 42 40 16 -1 34 -9 40 -18 13 -17 24 -10 24
17 0 16 -9 18 -80 18 -66 0 -78 -2 -74 -15z"/>
<path d="M4109 521 c12 -8 11 -23 -9 -98 -12 -48 -27 -94 -33 -100 -7 -10 9
-13 77 -13 47 0 86 4 86 9 0 5 3 17 6 26 6 14 1 13 -27 -4 -33 -20 -70 -27
-81 -16 -10 10 14 87 29 92 7 3 23 -3 33 -12 15 -14 20 -15 20 -4 0 8 3 25 7
39 6 24 6 24 -11 8 -19 -20 -56 -24 -56 -8 0 6 7 27 15 46 13 32 18 35 42 30
16 -4 34 -14 41 -23 6 -9 12 -12 12 -6 0 6 3 18 6 27 5 14 -6 16 -82 16 -57 0
-84 -4 -75 -9z"/>
<path d="M4328 518 c9 -12 7 -33 -14 -104 -14 -49 -31 -92 -37 -96 -7 -4 7 -8
29 -8 37 0 41 2 37 23 -5 26 14 83 25 73 4 -4 12 -26 17 -49 10 -38 14 -42 44
-45 30 -3 32 -2 19 12 -9 8 -19 32 -23 53 -6 32 -4 39 19 56 26 19 33 50 17
76 -6 10 -33 16 -78 19 -59 4 -66 3 -55 -10z m92 -37 c0 -19 -8 -35 -22 -45
-30 -21 -37 -12 -25 34 14 50 47 58 47 11z"/>
<path d="M4546 515 c7 -17 -33 -173 -48 -192 -8 -10 0 -13 33 -13 25 0 39 4
32 8 -10 6 -7 28 11 96 14 48 30 94 36 102 11 12 6 14 -28 14 -33 0 -40 -3
-36 -15z"/>
<path d="M4669 516 c9 -11 6 -34 -13 -102 -14 -48 -32 -91 -38 -96 -8 -5 -3
-8 14 -8 21 0 26 4 21 16 -6 16 24 141 37 149 4 2 24 -34 45 -81 21 -47 41
-81 45 -77 4 4 17 46 30 93 13 47 30 93 38 103 14 16 13 17 -19 17 -25 0 -30
-3 -19 -10 12 -7 12 -16 1 -62 -8 -29 -16 -57 -19 -62 -3 -5 -20 23 -38 62
-31 67 -35 72 -65 72 -26 0 -29 -2 -20 -14z"/>
<path d="M4933 510 c-43 -26 -64 -61 -65 -107 -1 -73 46 -111 120 -98 37 6 41
10 60 61 17 45 18 54 5 50 -8 -3 -24 -6 -34 -6 -11 0 -18 -4 -15 -9 6 -9 -12
-70 -24 -84 -15 -16 -48 4 -59 35 -33 95 92 226 135 140 10 -20 12 -21 18 -7
15 39 8 45 -51 45 -40 0 -68 -6 -90 -20z"/>
<path d="M5265 518 c-61 -33 -92 -93 -81 -154 12 -63 106 -84 151 -34 10 11
13 20 8 20 -6 0 -16 -7 -23 -15 -15 -18 -61 -20 -78 -3 -31 31 3 154 49 179
28 15 63 4 77 -23 8 -17 11 -19 11 -6 1 9 4 23 7 32 5 13 -3 16 -47 16 -30 0
-63 -6 -74 -12z"/>
<path d="M5463 509 c-71 -45 -93 -159 -38 -195 84 -55 213 84 166 178 -14 28
-22 33 -56 36 -27 1 -50 -5 -72 -19z m87 -9 c20 -38 -20 -159 -61 -180 -35
-19 -52 5 -44 64 13 103 75 172 105 116z"/>
<path d="M5668 517 c12 -14 -26 -165 -48 -192 -11 -13 -8 -15 16 -15 20 0 25
3 17 11 -8 8 -6 29 8 77 10 37 19 69 20 72 3 15 17 -51 19 -85 3 -84 12 -84
69 4 30 45 56 80 58 77 8 -8 -37 -144 -50 -149 -6 -3 7 -6 31 -6 26 -1 41 3
37 9 -8 13 32 158 51 188 15 23 15 23 -17 20 -28 -3 -39 -13 -76 -68 -24 -36
-48 -66 -52 -68 -5 -2 -12 29 -16 68 l-7 70 -35 0 c-28 0 -33 -3 -25 -13z"/>
<path d="M5958 517 c12 -14 -33 -187 -52 -199 -6 -4 8 -8 30 -8 37 0 41 2 37
23 -2 12 0 34 6 50 9 22 17 27 46 27 65 0 101 71 53 104 -29 20 -136 23 -120
3z m92 -34 c0 -35 -18 -63 -41 -63 -20 0 -20 18 2 77 11 30 39 19 39 -14z"/>
<path d="M6166 436 c-42 -52 -83 -102 -92 -110 -14 -15 -13 -16 11 -16 14 0
23 4 20 10 -3 5 2 21 11 35 12 19 25 25 50 25 31 0 34 -3 34 -29 0 -16 -6 -32
-12 -34 -7 -3 7 -6 32 -6 34 -1 41 2 32 11 -8 8 -10 40 -5 110 3 54 3 98 0 98
-3 0 -39 -42 -81 -94z m34 -16 c0 -25 -4 -30 -25 -30 -31 0 -31 7 -3 37 27 29
28 29 28 -7z"/>
<path d="M6342 520 c15 -9 15 -15 -4 -83 -11 -39 -26 -84 -33 -99 -13 -27 -12
-28 13 -28 19 0 23 3 13 9 -10 7 -11 16 -3 42 6 19 16 53 22 77 6 23 15 42 20
42 6 0 10 -4 10 -9 0 -15 70 -164 75 -159 3 2 18 48 34 102 16 54 35 102 43
107 9 6 2 9 -21 9 -28 0 -31 -2 -22 -14 9 -11 8 -27 -4 -71 -9 -31 -19 -54
-23 -51 -3 4 -18 34 -33 69 -26 59 -29 62 -66 65 -29 2 -34 0 -21 -8z"/>
<path d="M6575 506 c24 -37 31 -127 12 -165 l-15 -31 41 0 c30 0 38 3 30 11
-23 23 15 103 86 182 l25 27 -31 0 c-26 0 -30 -3 -26 -19 5 -18 -32 -81 -48
-81 -12 0 -19 73 -7 87 8 10 1 13 -36 13 l-46 0 15 -24z"/>
</g>
</svg>
