<svg version="1.0" xmlns="http://www.w3.org/2000/svg"
 width="351.558000pt" height="180.000000pt" viewBox="0 0 351.558000 180.000000"
 preserveAspectRatio="xMidYMid meet">

<g transform="translate(20.000000,160.000000) scale(0.100000,-0.100000)"
fill="#000000" stroke="none">
<path d="M1161 1156 c-49 -18 -111 -74 -132 -120 -16 -36 -19 -68 -19 -240 0
-196 0 -199 26 -247 44 -79 119 -121 219 -121 101 -1 186 51 226 137 16 35 19
66 19 235 0 168 -3 201 -19 236 -23 49 -88 107 -140 122 -49 15 -136 14 -180
-2z m59 -126 c5 0 32 -20 60 -45 59 -53 107 -75 161 -75 l39 0 0 -76 c0 -64
-2 -75 -15 -70 -9 3 -39 13 -68 21 -29 8 -78 31 -108 51 -46 30 -60 35 -97 31
-50 -5 -79 -28 -100 -77 -17 -40 -50 -90 -60 -90 -4 0 -5 39 -1 88 7 95 35
175 74 212 25 23 72 41 93 34 8 -2 18 -4 22 -4z m51 -210 c24 -16 79 -41 121
-55 42 -15 82 -33 89 -41 18 -22 3 -121 -26 -171 -34 -57 -44 -61 -38 -14 3
22 3 51 -1 65 -7 30 -94 92 -141 102 -43 8 -83 -25 -91 -78 -5 -29 -13 -42
-31 -49 -28 -10 -44 -47 -36 -80 l6 -24 -27 25 c-36 32 -66 91 -66 128 0 18
13 46 35 73 19 24 37 56 40 70 3 15 16 35 28 46 45 41 81 42 138 3z" fill="#335382"/>
<path d="M50 800 l0 -350 100 0 100 0 2 268 3 267 108 0 107 0 0 83 0 82 -210
0 -210 0 0 -350z m408 268 l-3 -63 -112 -3 -113 -3 0 -264 0 -265 -80 0 -80 0
0 330 0 330 195 0 196 0 -3 -62z" fill="#335382"/>
<path d="M530 800 l0 -350 210 0 210 0 0 80 0 79 -112 3 -113 3 0 50 0 50 73
3 72 3 0 79 0 80 -76 0 -75 0 3 53 3 52 113 3 112 3 0 79 0 80 -210 0 -210 0
0 -350z m400 265 l0 -65 -110 0 -110 0 0 -70 0 -70 75 0 76 0 -3 -62 -3 -63
-72 -3 -73 -3 0 -67 0 -67 107 0 108 0 3 -62 3 -63 -196 0 -195 0 0 330 0 330
195 0 195 0 0 -65z" fill="#335382"/>
<path d="M1700 940 l0 -60 -60 0 -60 0 0 -85 0 -85 60 0 60 0 0 -60 0 -60 80
0 80 0 1 45 c1 25 2 51 3 58 1 7 23 14 60 17 l58 5 2 80 1 80 -59 5 -59 5 -1
55 -1 55 -82 3 -83 3 0 -61z m150 -20 l0 -60 60 0 60 0 0 -65 0 -65 -60 0 -60
0 0 -60 0 -60 -65 0 -65 0 0 60 0 60 -60 0 -60 0 0 65 0 65 60 0 60 0 0 60 0
60 65 0 65 0 0 -60z" fill="#335382"/>

</g>
</svg>
