<svg version="1.0" xmlns="http://www.w3.org/2000/svg"
 width="420.000000pt" height="100.000000pt" viewBox="0 0 420.000000 100.000000"
 preserveAspectRatio="xMidYMid meet">

<g transform="translate(0.000000,79.000000) scale(0.100000,-0.100000)"
fill="#000000" stroke="none">
<path d="M327 716 c-65 -24 -98 -64 -111 -138 -8 -43 3 -53 38 -37 18 8 26 20
26 36 0 14 13 38 29 54 66 66 171 20 171 -75 l0 -45 -37 16 c-56 23 -108 12
-203 -42 -155 -88 -182 -118 -183 -205 -2 -115 112 -196 218 -155 77 29 50 67
-42 58 -48 -5 -54 -3 -82 25 -25 24 -31 39 -31 73 0 35 6 47 36 75 19 19 39
34 43 34 4 0 13 -21 20 -47 6 -27 21 -58 31 -71 26 -31 206 -140 253 -153 114
-31 232 89 198 201 -14 49 -66 110 -92 110 -29 0 -25 -51 6 -80 19 -18 25 -33
25 -68 0 -85 -78 -126 -159 -83 l-34 18 33 23 c55 39 70 87 70 225 0 128 -14
179 -58 218 -22 20 -86 46 -112 46 -8 0 -32 -6 -53 -13z m124 -275 c64 -65 20
-171 -71 -171 -91 0 -135 106 -71 171 23 23 38 29 71 29 33 0 48 -6 71 -29z" fill="#1d4278"/>
<path d="M346 401 c-23 -26 -17 -52 16 -70 24 -14 28 -14 47 3 26 24 27 48 3
69 -24 22 -45 21 -66 -2z" fill="#1d4278"/>
<path d="M890 375 l0 -165 30 0 30 0 0 65 c0 64 0 65 28 65 22 0 34 -12 70
-65 39 -60 45 -65 78 -65 25 0 33 3 28 13 -4 6 -29 44 -55 83 l-48 71 50 74
c27 41 49 77 49 82 0 4 -13 7 -30 7 -26 0 -36 -9 -77 -70 -36 -55 -51 -70 -67
-68 -19 3 -21 11 -24 71 -3 67 -3 67 -32 67 l-30 0 0 -165z" fill="#1d4278"/>
<path d="M1690 397 c0 -165 8 -187 66 -187 19 0 34 4 34 9 0 5 3 16 6 24 4 11
-2 16 -18 19 -23 3 -23 5 -26 141 l-3 137 -29 0 -30 0 0 -143z" fill="#1d4278"/>
<path d="M2270 480 l0 -61 -31 17 c-110 56 -198 -118 -103 -207 30 -28 84 -31
114 -4 18 16 20 16 20 2 0 -12 9 -17 30 -17 l30 0 0 165 0 165 -30 0 -30 0 0
-60z m-16 -112 c48 -69 -27 -145 -85 -87 -16 16 -20 28 -15 53 11 56 71 76
100 34z" fill="#1d4278"/>
<path d="M3050 375 l0 -165 30 0 29 0 3 111 3 111 80 -111 c73 -101 83 -110
113 -111 l32 0 0 165 0 165 -30 0 -29 0 -3 -112 -3 -113 -83 113 c-73 98 -87
112 -113 112 l-29 0 0 -165z" fill="#1d4278"/>
<path d="M3400 375 l0 -165 30 0 c30 0 30 0 30 56 0 55 0 56 25 50 38 -10 101
11 124 41 14 17 21 40 21 68 0 79 -53 115 -172 115 l-58 0 0 -165z m148 89
c46 -32 9 -98 -51 -92 -29 3 -32 6 -35 42 -2 21 -1 44 2 52 7 19 56 18 84 -2z" fill="#1d4278"/>
<path d="M3680 375 l0 -165 30 0 c30 0 30 0 30 56 0 55 0 56 25 50 38 -10 101
11 124 41 14 17 21 40 21 68 0 79 -53 115 -172 115 l-58 0 0 -165z m148 89
c46 -32 9 -98 -51 -92 -29 3 -32 6 -35 42 -2 21 -1 44 2 52 7 19 56 18 84 -2z" fill="#1d4278"/>
<path d="M1230 433 c-45 -23 -75 -81 -66 -128 18 -95 137 -132 205 -65 97 97
-17 256 -139 193z m95 -63 c35 -38 10 -110 -38 -110 -28 0 -67 39 -67 67 0 53
70 82 105 43z" fill="#1d4278"/>
<path d="M1883 436 c-41 -19 -64 -55 -65 -103 -1 -79 50 -128 130 -126 45 1
83 31 101 78 38 98 -68 195 -166 151z m97 -66 c26 -26 25 -60 0 -88 -39 -42
-100 -17 -100 41 0 60 59 88 100 47z" fill="#1d4278"/>
<path d="M1450 415 c0 -23 4 -25 45 -25 25 0 45 -2 45 -5 0 -3 -25 -37 -55
-76 -30 -39 -55 -77 -55 -85 0 -11 22 -14 105 -14 105 0 105 0 105 25 0 22 -4
24 -60 27 l-60 3 60 75 c33 41 60 81 60 88 0 9 -26 12 -95 12 -95 0 -95 0 -95
-25z" fill="#1d4278"/>
<path d="M2380 373 c0 -123 25 -167 93 -165 16 0 38 8 48 18 17 16 19 16 19 1
0 -12 9 -17 30 -17 l30 0 0 115 0 115 -29 0 c-28 0 -28 0 -33 -75 -5 -81 -18
-105 -54 -105 -32 0 -44 32 -44 116 l0 64 -30 0 -30 0 0 -67z" fill="#1d4278"/>
<path d="M2676 333 c25 -59 48 -113 51 -120 2 -6 -1 -21 -7 -33 -9 -17 -19
-21 -40 -18 -22 3 -30 0 -34 -16 -8 -29 1 -36 43 -36 60 0 77 22 125 160 66
189 63 172 25 168 -32 -3 -34 -6 -55 -78 -13 -41 -23 -77 -24 -80 -1 -3 -14
31 -29 75 -27 79 -28 80 -64 83 l-36 3 45 -108z" fill="#1d4278"/>
</g>
</svg>
