<svg xmlns="http://www.w3.org/2000/svg" width="220.6521739" height="100"><rect id="backgroundrect" width="100%" height="100%" x="0" y="0" fill="none" stroke="none" style="" class="selected"></rect><g class="currentLayer" style=""><title>Layer 1</title><g class=""><path d="M35.085069269887754,0 a5.0983375094983785,5.0983375094983785 0 0 0 -5.090829119926639,5.090829119926639 V23.53945634302363 a5.0983375094983785,5.0983375094983785 0 0 0 5.090829119926639,5.090829119926639 h18.44111445494491 a5.090829119926639,5.090829119926639 0 0 0 0,-10.181658239853277 H40.16838387023017 V5.090827806352536 A5.090829119926639,5.090829119926639 0 0 0 35.085069269887754,0 z" fill="#0f596e" id="svg_1" class=""></path><path d="M5.080723119543109,30.6500974278606 a5.090829119926639,5.090829119926639 0 0 0 0,10.181658239853277 h13.357794600306079 v13.327759290586982 a5.090829119926639,5.090829119926639 0 1 0 10.174148974565469,0 V35.74092567207117 a5.090829119926639,5.090829119926639 0 0 0 -5.083320292496865,-5.090829119926639 z" fill="#eb6012" id="svg_2" class=""></path><path d="M43.43462615984026,61.517932899005245 A14.063601610087062,14.063601610087062 0 0 0 53.35350127327547,65.58760264713783 c2.748146551625723,0 4.430072447576094,-1.1638324567206837 4.430072447576094,-2.6505346411158826 c0,-1.7720288695659292 -2.0047954046958694,-2.4703284749557497 -5.308578109661539,-3.1686277519520445 c-5.128371505643372,-1.028677832100584 -12.299081020628364,-2.3276649134413674 -12.299081020628364,-9.693598906233092 c0,-5.210966418080716 4.42256362014632,-9.761176163810887 12.389185198353516,-9.761176163810887 c4.985708163058007,0 9.318168919053278,1.5017194013967128 12.62195140508993,4.332460318137237 l-4.3775119691417785,5.729059747845895 a14.393980384120368,14.393980384120368 0 0 0 -8.755023938283557,-3.2136796218856034 c-2.6580432496166395,0 -3.6792124732164666,1.0662207651398603 -3.6792124732164666,2.417768215450451 c0,1.6293656364450726 1.907183713115046,2.1925103982857763 5.353629760666081,2.8457582432065465 C58.879812609782675,53.57384305738378 65.93789496761747,55.07556300610304 65.93789496761747,62.07357824736391 c0,6.2396442501813 -4.617787441166001,10.384390012586664 -12.952330179123237,10.384390012586664 c-6.2922042907575815,0 -10.669716697757394,-1.9522351451905706 -13.793293455491948,-4.93314856033976 z" fill="#0f596e" id="svg_3" class=""></path><path d="M71.19390778240631,65.84289139544126 V55.646225133605185 h-3.7542985582240362 v-6.24715263975304 h3.7542985582240362 v-6.149540510314182 h7.133167129268259 v6.149540510314182 H82.90732478356222 v6.24715263975304 H78.32707753882278 v8.199388222801645 c0,1.2989873002698005 0.7508597006983564,2.252579047362815 1.9972867961951124,2.252579047362815 A2.785689594129508,2.785689594129508 0 0 0 82.15646480920259,65.58760264713783 l1.3965991013151324,5.406189801242363 c-0.8785058262822076,0.8409628932429314 -2.6505346411158826,1.5017194013967128 -5.308578109661539,1.5017194013967128 C73.66424676595489,72.45795950278989 71.19390778240631,70.1753390156955 71.19390778240631,65.84289139544126 z" fill="#0f596e" id="svg_4" class=""></path><path d="M86.93943682094687,49.399066363839665 h7.178219218130835 v2.8457582432065465 a9.761176163810887,9.761176163810887 0 0 1 7.028046610257661,-3.4013946154755104 v6.9379433082485775 a5.894248697004514,5.894248697004514 0 0 0 -1.7645202610651722,-0.23276650776381302 c-1.8621320621105042,0 -4.332460318137237,0.7959112422383896 -5.256018069085258,2.094898487775936 v14.266334258536517 h-7.178219218130835 z" fill="#0f596e" id="svg_5" class=""></path><path d="M107.20513197619584,74.69553315531812 c1.6293656364450726,0 2.6505346411158826,-0.3228696729422609 3.0034388027934256,-1.2539356492652587 l0.5105846117999135,-1.2163927162259824 l-8.942738931873464,-22.826134813658427 h7.5085971164480725 l5.075811902925125,14.266334258536517 l5.128371505643372,-14.266334258536517 h7.591191153169348 l-10.15162380585025,25.716945364656567 c-1.817080520570471,4.752941956321592 -5.218474807652456,5.826671439426718 -9.505883912643185,5.916774741435802 a14.52162650970422,14.52162650970422 0 0 1 -3.0710162793002382,-0.3754298503491782 l1.021169223599827,-6.382307592766665 A3.8669274668063736,3.8669274668063736 0 0 0 107.20513197619584,74.69553315531812 z" fill="#0f596e" id="svg_6" class=""></path><path d="M129.74595849472098,80.47713674299303 V49.399066363839665 h7.178219218130835 v2.612991817541115 a8.387103216391552,8.387103216391552 0 0 1 6.660125450507621,-3.1686277519520445 c5.638956445836811,0 9.87380463453519,4.189796975551872 9.87380463453519,11.788497394009028 s-4.234848626556413,11.826040217583795 -9.87380463453519,11.826040217583795 a8.349559517100715,8.349559517100715 0 0 1 -6.660125450507621,-3.2136796218856034 v11.262895236814074 zm11.46562788526353,-25.29646153718204 a5.714042530844381,5.714042530844381 0 0 0 -4.287409104990729,2.049847055700411 V64.08588269841857 a5.901757524434288,5.901757524434288 0 0 0 4.287409104990729,2.049847055700411 c2.793198202630265,0 4.93314856033976,-2.1024070962766928 4.93314856033976,-5.496293103251446 S144.00477385509294,55.18069447156449 141.2115758713917,55.18069447156449 z" fill="#0f596e" id="svg_7" class=""></path><path d="M168.18246783176437,48.84343852980237 c6.660125450507621,0 11.503170708838297,4.888096909335218 11.503170708838297,12.531848978796916 v1.539262334435989 H163.66227369214175 c0.4204814466214657,2.094898487775936 2.3727167833749263,4.002081981961965 5.729059747845895,4.002081981961965 a8.905196108298696,8.905196108298696 0 0 0 5.496293103251446,-1.907183713115046 l3.0034388027934256,4.467615271150862 c-2.252579047362815,2.0047954046958694 -5.961825954582309,3.0034388027934256 -9.408272221062361,3.0034388027934256 c-6.9379433082485775,0 -12.299081020628364,-4.50515809472563 -12.299081020628364,-11.826040217583795 A11.615800055278669,11.615800055278669 0 0 1 168.18246783176437,48.84343852980237 zm-4.617787441166001,9.408272221062361 h9.27311770590677 c-0.1877149251745891,-1.5843138759760222 -1.3515474503105906,-3.8669274668063736 -4.655329826882735,-3.8669274668063736 A4.452598054149348,4.452598054149348 0 0 0 163.56468389346264,58.251708123716526 z" fill="#0f596e" id="svg_8" class=""></path><path d="M184.761440372793,64.08588269841857 a14.048583955227514,14.048583955227514 0 0 0 7.921569927202654,3.0034388027934256 c2.1399501387804776,0 3.0034388027934256,-0.6982995506575662 3.0034388027934256,-1.6819257864858628 c0,-1.1638324567206837 -1.539262334435989,-1.5768052674752653 -3.8669274668063736,-1.9522351451905706 c-3.8218758158018318,-0.6532479543852787 -9.220557227472455,-1.4416506428551656 -9.220557227472455,-7.178219218130835 c0,-3.957030768815457 3.4013946154755104,-7.403476159579441 9.641038427798776,-7.403476159579441 a15.805596155114472,15.805596155114472 0 0 1 9.408272221062361,3.0034388027934256 L198.92265192302875,56.577282954822294 a10.046502848981618,10.046502848981618 0 0 0 -6.615074237361114,-2.4703284749557497 c-1.6744171779851058,0 -2.8382496347057895,0.555636208072201 -2.8382496347057895,1.539262334435989 s1.2088841077252255,1.3965991013151324 3.581600781635643,1.817080520570471 c3.8218758158018318,0.6532479543852787 9.505883912643185,1.5843138759760222 9.505883912643185,7.54613994002284 c0,4.287409104990729 -3.7542985582240362,7.448528248442017 -10.249234621715004,7.448528248442017 c-4.002081981961965,0 -8.154336133939069,-1.3440388418098337 -10.512036138170515,-3.446446047551035 z" fill="#0f596e" id="svg_9" class=""></path></g></g></svg>